<?xml version="1.0" standalone="no"?>
<!DOCTYPE svg PUBLIC "-//W3C//DTD SVG 20010904//EN"
 "http://www.w3.org/TR/2001/REC-SVG-20010904/DTD/svg10.dtd">
<svg version="1.0" xmlns="http://www.w3.org/2000/svg"
 width="90.000000pt" height="90.000000pt" viewBox="0 0 90.000000 90.000000"
 preserveAspectRatio="xMidYMid meet">

<g transform="translate(0.000000,90.000000) scale(0.100000,-0.100000)"
fill="#000000" stroke="none">
<path d="M95 886 c-41 -18 -83 -69 -90 -109 -3 -18 -5 -177 -3 -354 3 -307 4
-323 24 -349 11 -15 33 -37 48 -48 27 -20 40 -21 376 -21 336 0 349 1 376 21
15 11 37 33 48 48 20 27 21 40 21 376 0 336 -1 349 -21 376 -11 15 -33 37 -48
48 -26 20 -42 21 -364 23 -265 2 -344 0 -367 -11z m705 -34 c67 -33 70 -48 70
-402 0 -354 -3 -369 -70 -402 -31 -16 -70 -18 -350 -18 -280 0 -319 2 -350 18
-67 33 -70 48 -70 402 0 280 2 319 18 350 33 67 48 70 402 70 280 0 319 -2
350 -18z"/>
<path d="M388 737 c-95 -27 -176 -104 -199 -191 -25 -93 -8 -208 42 -280 86
-125 301 -148 416 -43 l22 20 -26 33 c-30 39 -41 41 -85 14 -51 -31 -137 -28
-178 6 -47 40 -64 80 -64 154 0 101 50 171 133 185 40 7 116 -8 126 -25 13
-21 52 -10 75 22 28 39 21 54 -41 86 -57 28 -157 37 -221 19z"/>
</g>
</svg>
